<svg width="36" height="36" viewBox="0 0 36 36" fill="none" xmlns="http://www.w3.org/2000/svg">
<path opacity="0.4" d="M27 28.2901H25.86C24.66 28.2901 23.52 28.7551 22.68 29.5951L20.115 32.1301C18.945 33.2851 17.04 33.2851 15.87 32.1301L13.305 29.5951C12.465 28.7551 11.31 28.2901 10.125 28.2901H9C6.51 28.2901 4.5 26.2951 4.5 23.8351V7.47009C4.5 5.01009 6.51 3.01514 9 3.01514H27C29.49 3.01514 31.5 5.01009 31.5 7.47009V23.8351C31.5 26.2801 29.49 28.2901 27 28.2901Z" fill="#EB2D36"/>
<path d="M15.5694 21.7649H11.5494C10.8894 21.7649 10.2744 21.4499 9.88436 20.9099C9.50936 20.3999 9.41936 19.77 9.59936 19.17C10.1244 17.565 11.4144 16.6949 12.5544 15.9149C13.7544 15.1049 14.4294 14.5949 14.4294 13.7249C14.4294 12.9449 13.7994 12.3149 13.0194 12.3149C12.2394 12.3149 11.6094 12.9449 11.6094 13.7249C11.6094 14.3399 11.0994 14.8499 10.4844 14.8499C9.86937 14.8499 9.35938 14.3399 9.35938 13.7249C9.35938 11.7149 10.9944 10.0649 13.0194 10.0649C15.0444 10.0649 16.6794 11.6999 16.6794 13.7249C16.6794 15.8399 15.0894 16.9199 13.8144 17.7899C13.0194 18.3299 12.2694 18.8399 11.8944 19.5149H15.5544C16.1694 19.5149 16.6794 20.0249 16.6794 20.6399C16.6794 21.2549 16.1844 21.7649 15.5694 21.7649Z" fill="#EB2D36"/>
<path d="M24.0603 21.7649C23.4453 21.7649 22.9353 21.2549 22.9353 20.6399V19.6049H19.9953C19.9953 19.6049 19.9953 19.6049 19.9803 19.6049C19.2453 19.6049 18.5703 19.2149 18.1953 18.5849C17.8203 17.9399 17.8203 17.1449 18.1953 16.5149C19.2153 14.7599 20.4003 12.7649 21.4803 11.0249C21.9603 10.2599 22.8753 9.91493 23.7303 10.1549C24.5853 10.4099 25.1853 11.1899 25.1703 12.0899V17.3699H25.5003C26.1153 17.3699 26.6253 17.8799 26.6253 18.4949C26.6253 19.1099 26.1153 19.6199 25.5003 19.6199H25.1853V20.6549C25.1853 21.2699 24.6903 21.7649 24.0603 21.7649ZM22.9353 12.9599C22.0503 14.3999 21.1353 15.9449 20.3103 17.3549H22.9353V12.9599Z" fill="#EB2D36"/>
</svg>
