<svg width="36" height="36" viewBox="0 0 36 36" fill="none" xmlns="http://www.w3.org/2000/svg">
<path opacity="0.4" d="M18 7.95005V31.9951C18.255 31.9951 18.525 31.95 18.735 31.83L18.795 31.8001C21.675 30.2251 26.7 28.5751 29.955 28.1401L30.39 28.08C31.83 27.9 33 26.5501 33 25.1101V6.99002C33 5.20502 31.545 3.85504 29.76 4.00504C26.61 4.26004 21.84 5.85008 19.17 7.51508L18.795 7.74002C18.57 7.87502 18.285 7.95005 18 7.95005Z" fill="#82272C"/>
<path d="M3 7.00503V25.11C3 26.55 4.16999 27.9 5.60999 28.08L6.10501 28.1401C9.37501 28.5751 14.415 30.24 17.295 31.83C17.49 31.95 17.73 31.9951 18 31.9951V7.95004C17.715 7.95004 17.43 7.87501 17.205 7.74001L16.95 7.57504C14.28 5.89504 9.49497 4.29004 6.34497 4.02004H6.25497C4.46997 3.87004 3 5.20503 3 7.00503Z" fill="#82272C"/>
<path d="M28.5 4.16992V10.6049C28.5 11.2049 27.84 11.5649 27.33 11.2349L25.5 10.0199L23.67 11.2349C23.175 11.5649 22.5 11.2049 22.5 10.6049V5.87985C24.465 5.09985 26.655 4.46992 28.5 4.16992Z" fill="#82272C"/>
</svg>
