<svg width="36" height="36" viewBox="0 0 36 36" fill="none" xmlns="http://www.w3.org/2000/svg">
<path d="M25.1253 5.34V3C25.1253 2.385 24.6153 1.875 24.0003 1.875C23.3853 1.875 22.8753 2.385 22.8753 3V5.25H13.1253V3C13.1253 2.385 12.6153 1.875 12.0003 1.875C11.3853 1.875 10.8753 2.385 10.8753 3V5.34C6.82534 5.715 4.86034 8.13 4.56034 11.715C4.53034 12.15 4.89034 12.51 5.31034 12.51H30.6903C31.1253 12.51 31.4853 12.135 31.4403 11.715C31.1403 8.13 29.1753 5.715 25.1253 5.34Z" fill="#82272C"/>
<path opacity="0.4" d="M31.5 16.2599V18.8699C31.5 19.7849 30.69 20.4899 29.79 20.3399C29.37 20.2799 28.935 20.2349 28.5 20.2349C23.955 20.2349 20.25 23.9399 20.25 28.4849C20.25 29.1749 20.52 30.1349 20.805 31.0049C21.135 31.9799 20.415 32.9849 19.38 32.9849H12C6.75 32.9849 4.5 29.9849 4.5 25.4849V16.2449C4.5 15.4199 5.175 14.7449 6 14.7449H30C30.825 14.7599 31.5 15.4349 31.5 16.2599Z" fill="#82272C"/>
<path d="M28.5 22.5C25.185 22.5 22.5 25.185 22.5 28.5C22.5 29.625 22.815 30.69 23.37 31.59C24.405 33.33 26.31 34.5 28.5 34.5C30.69 34.5 32.595 33.33 33.63 31.59C34.185 30.69 34.5 29.625 34.5 28.5C34.5 25.185 31.815 22.5 28.5 22.5ZM31.605 27.855L28.41 30.81C28.2 31.005 27.915 31.11 27.645 31.11C27.36 31.11 27.075 31.005 26.85 30.78L25.365 29.295C24.93 28.86 24.93 28.14 25.365 27.705C25.8 27.27 26.52 27.27 26.955 27.705L27.675 28.425L30.075 26.205C30.525 25.785 31.245 25.815 31.665 26.265C32.085 26.715 32.055 27.42 31.605 27.855Z" fill="#82272C"/>
<path d="M12.75 22.5001C12.36 22.5001 11.97 22.3351 11.685 22.0651C11.415 21.7801 11.25 21.3901 11.25 21.0001C11.25 20.6101 11.415 20.2201 11.685 19.9351C12.03 19.5901 12.555 19.4251 13.05 19.5301C13.14 19.5451 13.23 19.5751 13.32 19.6201C13.41 19.6501 13.5 19.6951 13.59 19.7551C13.665 19.8151 13.74 19.8751 13.815 19.9351C14.085 20.2201 14.25 20.6101 14.25 21.0001C14.25 21.3901 14.085 21.7801 13.815 22.0651C13.74 22.1251 13.665 22.1851 13.59 22.2451C13.5 22.3051 13.41 22.3501 13.32 22.3801C13.23 22.4251 13.14 22.4551 13.05 22.4701C12.945 22.4851 12.84 22.5001 12.75 22.5001Z" fill="#82272C"/>
<path d="M18 22.5C17.61 22.5 17.22 22.335 16.935 22.065C16.665 21.78 16.5 21.39 16.5 21C16.5 20.61 16.665 20.22 16.935 19.935C17.505 19.38 18.51 19.38 19.065 19.935C19.335 20.22 19.5 20.61 19.5 21C19.5 21.39 19.335 21.78 19.065 22.065C18.78 22.335 18.39 22.5 18 22.5Z" fill="#82272C"/>
<path d="M12.75 27.7501C12.36 27.7501 11.97 27.585 11.685 27.315C11.415 27.03 11.25 26.6401 11.25 26.2501C11.25 25.8601 11.415 25.4701 11.685 25.1851C11.835 25.0501 11.985 24.945 12.18 24.87C12.735 24.63 13.395 24.7651 13.815 25.1851C14.085 25.4701 14.25 25.8601 14.25 26.2501C14.25 26.6401 14.085 27.03 13.815 27.315C13.53 27.585 13.14 27.7501 12.75 27.7501Z" fill="#82272C"/>
</svg>
